<svg width="396.5" height="89.3823264201984" viewBox="0 0 369.66666666666663 83.33333333333334" class="css-1j8o68f"><defs id="SvgjsDefs1712"></defs><g id="SvgjsG1713" featurekey="T16ghp-0" transform="matrix(0.946969696969697,0,0,0.946969696969697,-5.681818181818182,-5.681818181818182)" fill="#00adb5"><g xmlns="http://www.w3.org/2000/svg" transform="translate(0,-952.36218)"><path style="text-indent:0;text-transform:none;direction:ltr;block-progression:tb;baseline-shift:baseline;color:;enable-background:accumulate;" d="m 50,958.36218 c -24.2885,0 -44.0000002,19.71145 -44.0000002,44.00002 0,24.2885 19.7115002,44 44.0000002,44 24.2885,0 44,-19.7115 44,-44 0,-24.28857 -19.7115,-44.00002 -44,-44.00002 z m 0,2 c 23.2077,0 42,18.79235 42,42.00002 0,8.0024 -2.2143,15.4807 -6.0938,21.8437 -5.4731,-3.4089 -8.9174,-3.5443 -11.2187,-2.8125 -3.8106,1.2548 -5.2995,4.0987 -6.5625,6.25 -0.6315,1.0757 -1.2426,1.9844 -2,2.5938 -0.7515,0.6046 -1.6834,0.9997 -3.25,1 -1.7597,0 -2.8636,-0.6721 -3.7188,-1.5625 -0.8533,-0.9086 -1.4752,-2.192 -2.0937,-3.5625 -0.6185,-1.3705 -1.2354,-2.8454 -2.3125,-4 -1.0771,-1.1547 -2.6925,-1.8884 -4.8125,-1.75 -1.9607,0.2723 -4.2935,1.359 -5.4687,3.2812 -0.9999,1.5588 -1.3398,3.3324 -1.6563,4.9375 -0.3165,1.6051 -0.6433,3.0631 -1.2813,4.0313 -0.6338,0.962 -1.5099,1.6016 -3.5624,1.75 -1.7583,-0.07 -2.615,-0.6935 -3.3126,-1.6875 -0.7073,-1.0084 -1.1693,-2.4954 -1.6562,-4.0938 -0.4869,-1.5983 -0.9904,-3.2906 -2.125,-4.6875 -1.5279,-1.8755 -3.638,-2.3826 -5.5,-2.4375 -4.2422,0.055 -7.8185,2.7089 -8.7812,6.375 -5.3936,-7.064 -8.5938001,-15.8885 -8.5938001,-25.4687 C 7.9999999,979.15453 26.7923,960.36218 50,960.36218 z m -13.7188,9 c -0.2559,0 -0.4923,0.086 -0.6874,0.28125 -0.3905,0.3905 -0.3905,1.01575 0,1.40625 l 4.25,4.25 c 0.3904,0.3905 1.0157,0.3905 1.4062,0 0.3905,-0.3906 0.3905,-1.01565 0,-1.40625 l -4.25,-4.25 c -0.1953,-0.1953 -0.4627,-0.28125 -0.7188,-0.28125 z m 31.8438,4.25 c -0.3867,-0.048 -0.7929,0.1413 -1,0.5 l -3,5.1875 c -0.2761,0.4783 -0.1033,1.0989 0.375,1.375 0.4783,0.2762 1.0988,0.1033 1.375,-0.375 l 3,-5.1875 c 0.2761,-0.4783 0.1033,-1.0988 -0.375,-1.375 -0.1196,-0.069 -0.2461,-0.109 -0.375,-0.125 z m -23.6562,7.03125 c -0.129,0.016 -0.2556,0.056 -0.375,0.125 l -5.1876,3 c -0.4783,0.2762 -0.6511,0.8967 -0.375,1.375 0.2762,0.4783 0.8968,0.6511 1.375,0.375 l 5.1876,-3 c 0.4783,-0.2762 0.6511,-0.8967 0.375,-1.375 -0.2072,-0.3587 -0.6133,-0.548 -1,-0.5 z m -21.3438,4.84375 c -0.2559,0 -0.5233,0.0861 -0.7188,0.28125 l -4.25,4.25 c -0.3904,0.3906 -0.3904,1.047 0,1.4375 0.3905,0.3906 1.047,0.3906 1.4376,0 l 4.25,-4.25 c 0.3906,-0.3905 0.3906,-1.047 0,-1.4375 -0.1953,-0.1953 -0.4629,-0.28125 -0.7188,-0.28125 z m 38.5,1.625 c -0.1289,0.016 -0.2554,0.056 -0.375,0.125 -0.4783,0.2762 -0.6199,0.8967 -0.3438,1.375 l 3,5.1875 c 0.2762,0.4783 0.8655,0.6512 1.3438,0.375 0.4783,-0.2761 0.6512,-0.8967 0.375,-1.375 l -3,-5.1875 c -0.2071,-0.3587 -0.6133,-0.548 -1,-0.5 z m 18.6562,1.53125 -3,5.1875 c -0.2761,0.4783 -0.1345,1.0989 0.3438,1.375 0.4783,0.2762 1.0988,0.1033 1.375,-0.375 l 3,-5.1875 c 0.2901,-1.08464 -0.068,-1.35919 -0.75,-1.5 -0.4517,-0.0791 -0.7591,0.20299 -0.9688,0.5 z M 50,989.36218 c -7.1678,0 -13,5.83216 -13,13.00002 0,7.1678 5.8322,13 13,13 7.1678,0 13,-5.8322 13,-13 0,-7.16786 -5.8322,-13.00002 -13,-13.00002 z m 0,2 c 6.0868,0 11,4.91305 11,11.00002 0,6.0869 -4.9132,11 -11,11 -6.087,0 -11,-4.9131 -11,-11 0,-6.08698 4.913,-11.00002 11,-11.00002 z m -22.75,4.59375 c -0.2559,0 -0.4923,0.086 -0.6875,0.28125 -0.3907,0.3906 -0.3907,1.01575 0,1.40625 l 4.25,4.24997 c 0.3906,0.3906 1.0158,0.3906 1.4063,0 0.3906,-0.3906 0.3906,-1.0157 0,-1.4062 l -4.25,-4.25002 c -0.1953,-0.1953 -0.4628,-0.28125 -0.7188,-0.28125 z m 50,9.65627 -5.7812,1.5624 c -0.5337,0.143 -0.8618,0.6853 -0.7188,1.2188 0.1429,0.5335 0.6853,0.8304 1.2188,0.6875 l 5.8124,-1.5313 c 0.5337,-0.143 0.8303,-0.6852 0.6876,-1.2187 -0.2984,-0.792 -0.6342,-0.8211 -1.2188,-0.7187 z m -53.2812,2.3437 c -0.2784,0.05 -0.5322,0.231 -0.6876,0.5 l -3,5.1875 c -0.2761,0.4783 -0.1345,1.0989 0.3438,1.375 0.4783,0.2762 1.0989,0.1033 1.375,-0.375 l 3,-5.1875 c 0.2762,-0.4783 0.1033,-1.0988 -0.375,-1.375 -0.1196,-0.069 -0.2461,-0.109 -0.375,-0.125 -0.097,-0.012 -0.1885,-0.017 -0.2812,0 z m 26.125,14.4063 c 1.6125,-0.097 2.4468,0.3308 3.1874,1.125 0.747,0.8006 1.3461,2.0576 1.9688,3.4375 0.6227,1.3799 1.2808,2.8933 2.4375,4.125 1.5261,1.6803 3.4426,2.1134 5.1563,2.1875 1.9477,0.01 3.4329,-0.5538 4.5312,-1.4375 1.0983,-0.8837 1.8157,-2.013 2.4688,-3.125 1.3056,-2.2241 2.3358,-4.3434 5.4687,-5.375 1.7486,-0.5561 4.3655,-0.6116 9.5,2.5937 -7.5474,11.1511 -20.3234,18.4688 -34.8125,18.4688 -12.6399,0 -23.9587,-5.5801 -31.6562,-14.4063 -0.081,-3.6045 2.9519,-6.4321 7.0312,-6.5 1.5752,0.048 3.095,0.4906 3.9375,1.6875 0.8076,0.9943 1.3013,2.4563 1.7813,4.0313 0.4796,1.575 0.9489,3.2468 1.9374,4.6562 1.337,1.8286 3.1148,2.5305 5.0313,2.5313 2.5157,-0.1729 4.2067,-1.2155 5.1563,-2.6563 0.9493,-1.4407 1.2478,-3.1219 1.5624,-4.7187 0.3149,-1.5968 0.6465,-3.1141 1.375,-4.25 1.3306,-1.7592 2.5577,-2.0911 3.9376,-2.375 z" fill="#00adb5" fill-opacity="1" stroke="none" marker="none" visibility="visible" display="inline" overflow="visible"></path></g></g><g id="SvgjsG1714" featurekey="Fok8m0-0" transform="matrix(2.499219065545248,0,0,2.499219065545248,102.25023246296264,-5.445169820888696)" fill="#393e46"><path d="M9.94 7.42 l0.64 0 l-0.7 2.72 l-0.72 0 c0.16 -1.46 -0.06 -1.84 -0.84 -1.84 l-1.66 0 l0 10.32 c0 0.5 0.38 0.66 1.46 0.74 l0 0.64 c-1.74 -0.06 -3.54 -0.06 -5.28 0 l0 -0.64 c1.08 -0.08 1.46 -0.24 1.46 -0.74 l0 -10.32 l-1.54 0 c-0.78 0 -1 0.28 -1.76 1.84 l-0.7 0 l0.72 -2.72 l0.64 0 c0.56 0.14 0.9 0.16 1.9 0.16 l4.48 0 c1 0 1.34 -0.02 1.9 -0.16 z M18.6 17.8 c0 0.72 0.44 0.86 1.22 0.74 l0 0.7 c-1.76 0.42 -2.5 1 -3 1 c-0.34 0 -0.52 -0.18 -0.5 -0.6 l0.12 -1.5 c-0.44 0.96 -1.38 2.1 -3.1 2.1 c-1.42 0 -2.96 -0.7 -2.96 -2.54 s1.26 -3.06 5.94 -4.02 l0 -0.92 c0 -1.68 -0.12 -2.34 -1.02 -2.34 c-2.92 0 -1.38 3.02 -3.26 3.02 c-0.68 0 -1 -0.4 -1 -0.94 c0 -1.48 1.9 -2.7 4.34 -2.7 c2.26 0 3.22 0.68 3.22 3.08 l0 4.92 z M14.16 19.26 c1.24 0 1.96 -1.46 2.16 -2.12 l0 -2.84 c-3.32 0.72 -3.6 2.36 -3.6 3.24 c0 1.02 0.54 1.72 1.44 1.72 z M27.94 17.259999999999998 c0 1.74 -1.68 2.98 -3.18 2.98 c-1.34 0 -2.08 -0.7 -2.68 -0.7 c-0.28 0 -0.44 0.16 -0.46 0.44 l-0.64 0 l-0.24 -2.72 l0.32 0 c0.26 0 0.48 0.04 0.56 0.32 c0.3 1.1 1.82 2.02 2.88 2.02 c0.92 0 1.5 -0.62 1.5 -1.46 c0 -1.08 -0.94 -1.54 -2.32 -2.24 c-1.4 -0.7 -2.96 -1.62 -2.96 -3.38 c0 -1.52 1.3 -2.7 3.02 -2.7 c1.32 0 1.76 0.56 2.28 0.56 c0.26 0 0.42 -0.14 0.48 -0.4 l0.66 0 l0.18 2.62 l-0.34 0 c-0.26 0 -0.4 -0.08 -0.52 -0.32 c-0.5 -1.12 -1.52 -1.86 -2.44 -1.86 s-1.46 0.66 -1.46 1.42 c0 0.94 0.7 1.4 1.84 1.96 c1.26 0.6 3.52 1.52 3.52 3.46 z M34.32 19.42 c-0.38 0.36 -1.12 0.72 -1.94 0.72 c-1.52 0 -2.56 -0.78 -2.56 -2.76 l0 -6.66 l-0.86 0 c-0.14 0 -0.22 -0.1 -0.22 -0.24 l0 -0.28 c0 -0.14 0.08 -0.22 0.22 -0.22 c1.36 0 1.92 -0.96 2.14 -2.72 l0.98 0 l0 2.72 l2.04 0 c0.14 0 0.22 0.08 0.22 0.22 l0 0.28 c0 0.14 -0.08 0.24 -0.22 0.24 l-2.04 0 l0 7.04 c0 0.8 0.18 1.5 1 1.5 c0.54 0 1 -0.34 1.24 -0.64 l0 0.8 z M45.4 9.98 l0 0.64 l-0.54 0.06 c-0.48 0.06 -0.82 0.28 -0.98 0.72 l-4.76 12.62 c-0.1 0.22 -0.16 0.36 -0.62 0.36 c-0.52 0 -0.66 -0.14 -0.56 -0.36 c0.34 -0.7 1.86 -3.8 1.86 -4 c0 -0.4 -2.44 -5.76 -3.66 -8.62 c-0.2 -0.46 -0.4 -0.7 -0.72 -0.72 l-0.6 -0.06 l0 -0.64 c1.56 0.06 3.3 0.06 4.7 0 l0 0.64 l-0.62 0.06 c-0.36 0.02 -0.64 0.28 -0.46 0.72 l2.46 5.9 l2.18 -5.9 c0.16 -0.46 -0.26 -0.68 -0.64 -0.72 l-0.6 -0.06 l0 -0.64 c1.14 0.06 2.16 0.06 3.56 0 z M59.63999999999999 7.42 l0.64 0 l-0.7 2.72 l-0.72 0 c0.16 -1.46 -0.06 -1.84 -0.84 -1.84 l-1.66 0 l0 10.32 c0 0.5 0.38 0.66 1.46 0.74 l0 0.64 c-1.74 -0.06 -3.54 -0.06 -5.28 0 l0 -0.64 c1.08 -0.08 1.46 -0.24 1.46 -0.74 l0 -10.32 l-1.54 0 c-0.78 0 -1 0.28 -1.76 1.84 l-0.7 0 l0.72 -2.72 l0.64 0 c0.56 0.14 0.9 0.16 1.9 0.16 l4.48 0 c1 0 1.34 -0.02 1.9 -0.16 z M67.16 9.78 c0.98 0 1.64 0.52 1.64 1.22 s-0.5 1.1 -1.04 1.1 c-0.92 0 -0.9 -0.8 -1.76 -0.8 c-1.16 0 -1.6 1.48 -1.76 1.94 l0 5.38 c0 0.5 0.56 0.66 1.22 0.74 l0 0.64 c-1.56 -0.08 -3.12 -0.08 -4.68 0 l0 -0.64 c0.68 -0.08 1.22 -0.24 1.22 -0.74 l0 -6.36 c0 -0.7 -0.44 -0.86 -1.22 -0.76 l0 -0.64 c1.76 -0.32 2.52 -1.12 2.98 -1.12 c0.34 0 0.54 0.24 0.48 0.62 l-0.3 2 c0.72 -1.64 1.66 -2.58 3.22 -2.58 z  M77.38 17.8 c0 0.72 0.44 0.86 1.22 0.74 l0 0.7 c-1.76 0.42 -2.5 1 -3 1 c-0.34 0 -0.52 -0.18 -0.5 -0.6 l0.12 -1.5 c-0.44 0.96 -1.38 2.1 -3.1 2.1 c-1.42 0 -2.96 -0.7 -2.96 -2.54 s1.26 -3.06 5.94 -4.02 l0 -0.92 c0 -1.68 -0.12 -2.34 -1.02 -2.34 c-2.92 0 -1.38 3.02 -3.26 3.02 c-0.68 0 -1 -0.4 -1 -0.94 c0 -1.48 1.9 -2.7 4.34 -2.7 c2.26 0 3.22 0.68 3.22 3.08 l0 4.92 z M72.94 19.26 c1.24 0 1.96 -1.46 2.16 -2.12 l0 -2.84 c-3.32 0.72 -3.6 2.36 -3.6 3.24 c0 1.02 0.54 1.72 1.44 1.72 z M87.44 17.8 c0.24 0 0.36 0.2 0.22 0.46 c-0.56 1.12 -1.58 1.94 -3.3 1.94 c-2.64 0 -4.86 -1.88 -4.86 -5.26 c0 -3.22 2.2 -5.12 4.64 -5.12 c2.2 0 3.68 1.22 3.7 2.6 c0 0.46 -0.36 0.98 -1.08 0.98 c-0.66 0 -1.08 -0.42 -1.04 -0.94 c0.04 -0.98 -0.2 -1.96 -1.36 -1.96 c-1.58 0 -2.4 1.64 -2.4 4.3 c0 2.78 1 4.72 2.58 4.72 c1.34 0 1.98 -0.76 2.18 -1.5 c0.04 -0.16 0.14 -0.22 0.26 -0.22 l0.46 0 z M96.64 18.02 c0.78 1.02 1.64 1.58 2.34 1.64 l-0.62 0.64 c-1.24 0 -2.58 -0.26 -3.72 -1.72 l-2.42 -3.08 l0 3.12 c0 0.5 0.54 0.68 1.22 0.74 l0 0.64 c-1.56 -0.06 -3.12 -0.06 -4.68 0 l0 -0.64 c0.66 -0.08 1.2 -0.24 1.2 -0.74 l0 -9.94 c0 -0.7 -0.44 -0.88 -1.22 -0.76 l0 -0.64 c1.76 -0.32 2.54 -1.1 3.02 -1.1 c0.32 0 0.46 0.18 0.46 0.58 l0 7.72 c1.3 -1 2.22 -1.98 3.02 -3.08 c0.24 -0.36 0.02 -0.68 -0.74 -0.76 l0 -0.66 c1.28 0.06 2.58 0.06 3.86 0 l0 0.66 c-0.74 0.08 -1.12 0.24 -1.78 0.84 l-2.92 2.66 z M107 17.259999999999998 c0 1.74 -1.68 2.98 -3.18 2.98 c-1.34 0 -2.08 -0.7 -2.68 -0.7 c-0.28 0 -0.44 0.16 -0.46 0.44 l-0.64 0 l-0.24 -2.72 l0.32 0 c0.26 0 0.48 0.04 0.56 0.32 c0.3 1.1 1.82 2.02 2.88 2.02 c0.92 0 1.5 -0.62 1.5 -1.46 c0 -1.08 -0.94 -1.54 -2.32 -2.24 c-1.4 -0.7 -2.96 -1.62 -2.96 -3.38 c0 -1.52 1.3 -2.7 3.02 -2.7 c1.32 0 1.76 0.56 2.28 0.56 c0.26 0 0.42 -0.14 0.48 -0.4 l0.66 0 l0.18 2.62 l-0.34 0 c-0.26 0 -0.4 -0.08 -0.52 -0.32 c-0.5 -1.12 -1.52 -1.86 -2.44 -1.86 s-1.46 0.66 -1.46 1.42 c0 0.94 0.7 1.4 1.84 1.96 c1.26 0.6 3.52 1.52 3.52 3.46 z"></path></g><g id="SvgjsG1715" featurekey="TflPBd-0" transform="matrix(0.583563555705299,0,0,0.583563555705299,102.92998364025661,62.44399155922724)" fill="#393e46"><path d="M9.26 6.279999999999999 l-3.24 0 l0 13.14 c0 0.24 -0.08666 0.44666 -0.26 0.62 s-0.38 0.26 -0.62 0.26 c-0.25334 0 -0.46668 -0.08666 -0.64002 -0.26 s-0.26 -0.38 -0.26 -0.62 l0 -13.14 l-3.24 0 c-0.24 0 -0.44666 -0.08334 -0.62 -0.25 s-0.26 -0.37666 -0.26 -0.63 c0 -0.24 0.08666 -0.44666 0.26 -0.62 s0.38 -0.26 0.62 -0.26 l8.26 0 c0.24 0 0.44666 0.08666 0.62 0.26 s0.26 0.38 0.26 0.62 c0 0.25334 -0.08666 0.46334 -0.26 0.63 s-0.38 0.25 -0.62 0.25 z M36.178 20.22 c-0.10666 0.05334 -0.21992 0.08 -0.33992 0.08 c-0.17334 0 -0.33668 -0.04666 -0.49002 -0.14 s-0.26334 -0.22668 -0.33 -0.40002 l-1.58 -3.72 l-7.26 0 l-1.58 3.72 c-0.09334 0.22666 -0.25334 0.38666 -0.48 0.48 s-0.45332 0.08668 -0.67998 -0.01998 c-0.22666 -0.09334 -0.38666 -0.25334 -0.48 -0.48 s-0.08668 -0.45332 0.01998 -0.67998 l1.8 -4.26 l4.22 -9.88 c0.06666 -0.17334 0.17332 -0.30668 0.31998 -0.40002 s0.31332 -0.14 0.49998 -0.14 c0.17334 0 0.33334 0.04666 0.48 0.14 s0.25332 0.22668 0.31998 0.40002 c1.0133 2.3734 2.02 4.73 3.02 7.07 s2.0066 4.6966 3.02 7.07 c0.09334 0.22666 0.09334 0.45332 0 0.67998 s-0.25334 0.38666 -0.48 0.48 z M29.817999999999998 7.539999999999999 l-2.88 6.72 l5.74 0 z M54.996 20.3 c-0.61334 0 -1.1867 -0.11668 -1.72 -0.35002 s-1 -0.55 -1.4 -0.95 s-0.71666 -0.86666 -0.95 -1.4 s-0.35 -1.1067 -0.35 -1.72 c0 -0.25334 0.08666 -0.46668 0.26 -0.64002 s0.38668 -0.26 0.64002 -0.26 c0.24 0 0.44666 0.08666 0.62 0.26 s0.26 0.38668 0.26 0.64002 c0 0.36 0.07 0.7 0.21 1.02 s0.33 0.6 0.57 0.84 s0.52 0.43 0.84 0.57 s0.66 0.21 1.02 0.21 s0.70334 -0.07 1.03 -0.21 s0.61 -0.33 0.85 -0.57 s0.43 -0.52 0.57 -0.84 s0.21 -0.66 0.21 -1.02 c0 -0.44 -0.08666 -0.80334 -0.26 -1.09 s-0.41334 -0.53666 -0.72 -0.75 c-0.14666 -0.10666 -0.31332 -0.20332 -0.49998 -0.28998 s-0.38 -0.17666 -0.58 -0.27 c-0.2 -0.08 -0.40666 -0.16 -0.62 -0.24 s-0.43334 -0.16 -0.66 -0.24 c-0.44 -0.16 -0.88334 -0.34 -1.33 -0.54 s-0.84666 -0.45 -1.2 -0.75 s-0.64334 -0.67334 -0.87 -1.12 s-0.34 -0.99666 -0.34 -1.65 c0 -0.61334 0.11666 -1.1867 0.35 -1.72 s0.55 -1 0.95 -1.4 s0.86666 -0.71666 1.4 -0.95 s1.1067 -0.35 1.72 -0.35 s1.19 0.11666 1.73 0.35 s1.01 0.55 1.41 0.95 s0.71666 0.86666 0.95 1.4 s0.35 1.1067 0.35 1.72 c0 0.24 -0.08666 0.44666 -0.26 0.62 s-0.38668 0.26 -0.64002 0.26 c-0.24 0 -0.44666 -0.08666 -0.62 -0.26 s-0.26 -0.38 -0.26 -0.62 c0 -0.36 -0.07 -0.70334 -0.21 -1.03 s-0.33 -0.61 -0.57 -0.85 s-0.52334 -0.43 -0.85 -0.57 s-0.67 -0.21 -1.03 -0.21 s-0.7 0.07 -1.02 0.21 s-0.6 0.33 -0.84 0.57 s-0.43 0.52334 -0.57 0.85 s-0.21 0.67 -0.21 1.03 c0 0.4 0.08334 0.73334 0.25 1 s0.40332 0.5 0.70998 0.7 c0.32 0.2 0.68 0.38 1.08 0.54 l0.64 0.24 l0.66 0.24 c0.44 0.16 0.88334 0.34334 1.33 0.55 s0.84666 0.46666 1.2 0.78 s0.64334 0.70334 0.87 1.17 s0.34 1.04 0.34 1.72 c0 0.61334 -0.11666 1.1867 -0.35 1.72 s-0.55 1 -0.95 1.4 s-0.87 0.71666 -1.41 0.95 s-1.1167 0.35 -1.73 0.35 z M82.21400000000001 6.279999999999999 l-3.24 0 l0 13.14 c0 0.24 -0.08666 0.44666 -0.26 0.62 s-0.38 0.26 -0.62 0.26 c-0.25334 0 -0.46668 -0.08666 -0.64002 -0.26 s-0.26 -0.38 -0.26 -0.62 l0 -13.14 l-3.24 0 c-0.24 0 -0.44666 -0.08334 -0.62 -0.25 s-0.26 -0.37666 -0.26 -0.63 c0 -0.24 0.08666 -0.44666 0.26 -0.62 s0.38 -0.26 0.62 -0.26 l8.26 0 c0.24 0 0.44666 0.08666 0.62 0.26 s0.26 0.38 0.26 0.62 c0 0.25334 -0.08666 0.46334 -0.26 0.63 s-0.38 0.25 -0.62 0.25 z M104.952 20.3 l-6.88 -0.000019531 c-0.25334 0 -0.46668 -0.08666 -0.64002 -0.26 s-0.26 -0.38 -0.26 -0.62 l0 -0.04 l0 -0.04 l0 -13.94 c0 -0.24 0.08666 -0.44666 0.26 -0.62 s0.38668 -0.26 0.64002 -0.26 l6.88 0 c0.25334 0 0.46668 0.08666 0.64002 0.26 s0.26 0.38 0.26 0.62 c0 0.25334 -0.08666 0.46334 -0.26 0.63 s-0.38668 0.25 -0.64002 0.25 l-6 0 l0 5.1 l5.06 0 c0.24 0 0.44666 0.08334 0.62 0.25 s0.26 0.37666 0.26 0.63 c0 0.24 -0.08666 0.44666 -0.26 0.62 s-0.38 0.26 -0.62 0.26 l-5.06 0 l0 5.38 l6 0 c0.25334 0 0.46668 0.08666 0.64002 0.26 s0.26 0.38668 0.26 0.64002 c0 0.24 -0.08666 0.44666 -0.26 0.62 s-0.38668 0.26 -0.64002 0.26 z M120.43 20.3 c-0.32 0 -0.59666 -0.11666 -0.83 -0.35 s-0.35 -0.51 -0.35 -0.83 c0 -0.33334 0.11334 -0.61 0.34 -0.83 s0.50666 -0.33 0.84 -0.33 s0.61334 0.11 0.84 0.33 s0.34 0.49666 0.34 0.83 c0 0.32 -0.11666 0.59666 -0.35 0.83 s-0.51 0.35 -0.83 0.35 z M141.328 20.3 l-4.26 0.000019531 c-0.25334 0 -0.46668 -0.08666 -0.64002 -0.26 s-0.26 -0.38 -0.26 -0.62 l0 -14.02 c0 -0.24 0.08666 -0.44666 0.26 -0.62 s0.38668 -0.26 0.64002 -0.26 l2.92 0 c0.50666 0 0.98666 0.09666 1.44 0.29 s0.84668 0.45668 1.18 0.79002 s0.59668 0.72668 0.79002 1.18 s0.29 0.93334 0.29 1.44 c0 0.8 -0.24 1.5333 -0.72 2.2 c0.52 0.17334 0.99334 0.41 1.42 0.71 s0.79332 0.65666 1.1 1.07 s0.54666 0.87 0.72 1.37 s0.26 1.03 0.26 1.59 c0 0.70666 -0.13334 1.3733 -0.4 2 s-0.63332 1.1733 -1.1 1.64 s-1.0133 0.83332 -1.64 1.1 s-1.2933 0.4 -2 0.4 z M139.988 6.279999999999999 l-2.04 0 l0 3.86 l2.24 0 c0.21334 0 0.42334 -0.05666 0.63 -0.17 s0.39 -0.26 0.55 -0.44 s0.29 -0.38334 0.39 -0.61 s0.15 -0.46 0.15 -0.7 c0 -0.26666 -0.05 -0.51666 -0.15 -0.75 s-0.23666 -0.44 -0.41 -0.62 s-0.37668 -0.32 -0.61002 -0.42 s-0.48334 -0.15 -0.75 -0.15 z M141.328 11.92 l-3.38 -0.000039062 l0 6.6 l3.38 0 c0.46666 0 0.90332 -0.08666 1.31 -0.26 s0.76332 -0.41334 1.07 -0.72 s0.54666 -0.66332 0.72 -1.07 s0.26 -0.84332 0.26 -1.31 s-0.09 -0.9 -0.27 -1.3 s-0.42 -0.74334 -0.72 -1.03 s-0.65666 -0.51 -1.07 -0.67 s-0.84668 -0.24 -1.3 -0.24 z M167.42600000000002 20.3 l-5.34 0 c-0.24 0 -0.44666 -0.08666 -0.62 -0.26 s-0.26 -0.38 -0.26 -0.62 l0 -14.02 c0 -0.25334 0.08666 -0.46334 0.26 -0.63 s0.38 -0.25 0.62 -0.25 c0.25334 0 0.46334 0.08334 0.63 0.25 s0.25 0.37666 0.25 0.63 l0 13.14 l4.46 0 c0.25334 0 0.46668 0.08666 0.64002 0.26 s0.26 0.38 0.26 0.62 s-0.08666 0.44666 -0.26 0.62 s-0.38668 0.26 -0.64002 0.26 z M189.64400000000003 20.3 c-1.0933 0 -2.12 -0.20666 -3.08 -0.62 s-1.7967 -0.97668 -2.51 -1.69 s-1.2767 -1.55 -1.69 -2.51 s-0.62 -1.9867 -0.62 -3.08 c0 -1.08 0.20666 -2.1 0.62 -3.06 s0.97668 -1.7967 1.69 -2.51 s1.55 -1.2767 2.51 -1.69 s1.9867 -0.62 3.08 -0.62 c1.08 0 2.1 0.20666 3.06 0.62 s1.7967 0.97668 2.51 1.69 s1.2767 1.55 1.69 2.51 s0.62 1.98 0.62 3.06 c0 1.0933 -0.20666 2.12 -0.62 3.08 s-0.97668 1.7967 -1.69 2.51 s-1.55 1.2767 -2.51 1.69 s-1.98 0.62 -3.06 0.62 z M189.64400000000003 6.279999999999999 c-0.84 0 -1.6333 0.16 -2.38 0.48 s-1.4 0.75666 -1.96 1.31 s-1 1.2033 -1.32 1.95 s-0.48 1.54 -0.48 2.38 s0.16 1.6333 0.48 2.38 s0.76 1.4 1.32 1.96 s1.2133 1 1.96 1.32 s1.54 0.48 2.38 0.48 s1.6333 -0.16 2.38 -0.48 s1.3967 -0.76 1.95 -1.32 s0.99 -1.2133 1.31 -1.96 s0.48 -1.54 0.48 -2.38 s-0.16 -1.6333 -0.48 -2.38 s-0.75666 -1.3967 -1.31 -1.95 s-1.2033 -0.99 -1.95 -1.31 s-1.54 -0.48 -2.38 -0.48 z M225.92200000000003 17.96 c-0.76 0.76 -1.6234 1.3399 -2.59 1.7399 s-1.99 0.6 -3.07 0.6 c-1.1067 0 -2.1434 -0.21 -3.11 -0.63 s-1.81 -0.99 -2.53 -1.71 s-1.29 -1.5633 -1.71 -2.53 s-0.63 -2.0034 -0.63 -3.11 s0.21 -2.1334 0.63 -3.08 s0.99334 -1.77 1.72 -2.47 s1.5733 -1.25 2.54 -1.65 s1.9967 -0.6 3.09 -0.6 c1.08 0 2.1034 0.2 3.07 0.6 s1.83 0.98 2.59 1.74 c0.17334 0.17334 0.26 0.38 0.26 0.62 s-0.08666 0.44666 -0.26 0.62 c-0.18666 0.18666 -0.4 0.28 -0.64 0.28 s-0.44666 -0.09334 -0.62 -0.28 c-0.6 -0.58666 -1.2733 -1.0367 -2.02 -1.35 s-1.54 -0.47 -2.38 -0.47 c-0.85334 0 -1.6567 0.15334 -2.41 0.46 s-1.41 0.73 -1.97 1.27 s-1.0033 1.18 -1.33 1.92 s-0.49 1.5367 -0.49 2.39 s0.16334 1.6567 0.49 2.41 s0.77 1.41 1.33 1.97 s1.2167 1.0033 1.97 1.33 s1.5567 0.49 2.41 0.49 c0.77334 0 1.5133 -0.13334 2.22 -0.4 s1.3467 -0.65332 1.92 -1.16 l0 -3.76 l-4.04 0 c-0.25334 0 -0.46668 -0.08666 -0.64002 -0.26 s-0.26 -0.38 -0.26 -0.62 c0 -0.25334 0.08666 -0.46668 0.26 -0.64002 s0.38668 -0.26 0.64002 -0.26 l4.92 0 c0.25334 0 0.46668 0.08666 0.64002 0.26 s0.26 0.38668 0.26 0.64002 l0 5.02 c0 0.24 -0.08666 0.44666 -0.26 0.62 z M241.92000000000004 20.3 c-0.32 0 -0.59666 -0.11666 -0.83 -0.35 s-0.35 -0.51 -0.35 -0.83 c0 -0.33334 0.11334 -0.61 0.34 -0.83 s0.50666 -0.33 0.84 -0.33 s0.61334 0.11 0.84 0.33 s0.34 0.49666 0.34 0.83 c0 0.32 -0.11666 0.59666 -0.35 0.83 s-0.51 0.35 -0.83 0.35 z M265.43800000000005 20.3 l-6.88 -0.000019531 c-0.25334 0 -0.46668 -0.08666 -0.64002 -0.26 s-0.26 -0.38 -0.26 -0.62 l0 -0.04 l0 -0.04 l0 -13.94 c0 -0.24 0.08666 -0.44666 0.26 -0.62 s0.38668 -0.26 0.64002 -0.26 l6.88 0 c0.25334 0 0.46668 0.08666 0.64002 0.26 s0.26 0.38 0.26 0.62 c0 0.25334 -0.08666 0.46334 -0.26 0.63 s-0.38668 0.25 -0.64002 0.25 l-6 0 l0 5.1 l5.06 0 c0.24 0 0.44666 0.08334 0.62 0.25 s0.26 0.37666 0.26 0.63 c0 0.24 -0.08666 0.44666 -0.26 0.62 s-0.38 0.26 -0.62 0.26 l-5.06 0 l0 5.38 l6 0 c0.25334 0 0.46668 0.08666 0.64002 0.26 s0.26 0.38668 0.26 0.64002 c0 0.24 -0.08666 0.44666 -0.26 0.62 s-0.38668 0.26 -0.64002 0.26 z M290.536 20.3 c-0.33334 0 -0.58668 -0.14 -0.76002 -0.42 l-7.22 -11.44 l0 10.98 c0 0.24 -0.08334 0.44666 -0.25 0.62 s-0.37666 0.26 -0.63 0.26 c-0.24 0 -0.44666 -0.08666 -0.62 -0.26 s-0.26 -0.38 -0.26 -0.62 l0 -14.02 c0 -0.24 0.08666 -0.44666 0.26 -0.62 s0.38 -0.26 0.62 -0.26 c0.33334 0 0.58668 0.13334 0.76002 0.4 l7.22 11.44 l0 -10.96 c0 -0.24 0.08334 -0.44666 0.25 -0.62 s0.37666 -0.26 0.63 -0.26 c0.24 0 0.44666 0.08666 0.62 0.26 s0.26 0.38 0.26 0.62 l0 14.02 c0 0.24 -0.08666 0.44666 -0.26 0.62 s-0.38 0.26 -0.62 0.26 z M308.55400000000003 20.3 c-0.36 0 -0.7 -0.07 -1.02 -0.21 s-0.59666 -0.32666 -0.83 -0.56 s-0.42 -0.51 -0.56 -0.83 s-0.21 -0.66 -0.21 -1.02 c0 -0.25334 0.08666 -0.46334 0.26 -0.63 s0.38 -0.25 0.62 -0.25 c0.25334 0 0.46668 0.08334 0.64002 0.25 s0.26 0.37666 0.26 0.63 c0 0.22666 0.08334 0.42332 0.25 0.58998 s0.36332 0.25 0.58998 0.25 c0.24 0 0.44334 -0.08334 0.61 -0.25 s0.25 -0.36332 0.25 -0.58998 l0 -12.28 c0 -0.24 0.08334 -0.44666 0.25 -0.62 s0.37666 -0.26 0.63 -0.26 c0.24 0 0.44666 0.08666 0.62 0.26 s0.26 0.38 0.26 0.62 l0 12.28 c0 0.36 -0.06666 0.7 -0.2 1.02 s-0.32 0.59666 -0.56 0.83 s-0.52 0.42 -0.84 0.56 s-0.66 0.21 -1.02 0.21 z M334.27200000000005 20.3 c-1.0933 0 -2.12 -0.20666 -3.08 -0.62 s-1.7967 -0.97668 -2.51 -1.69 s-1.2767 -1.55 -1.69 -2.51 s-0.62 -1.9867 -0.62 -3.08 c0 -1.08 0.20666 -2.1 0.62 -3.06 s0.97668 -1.7967 1.69 -2.51 s1.55 -1.2767 2.51 -1.69 s1.9867 -0.62 3.08 -0.62 c1.08 0 2.1 0.20666 3.06 0.62 s1.7967 0.97668 2.51 1.69 s1.2767 1.55 1.69 2.51 s0.62 1.98 0.62 3.06 c0 1.0933 -0.20666 2.12 -0.62 3.08 s-0.97668 1.7967 -1.69 2.51 s-1.55 1.2767 -2.51 1.69 s-1.98 0.62 -3.06 0.62 z M334.27200000000005 6.279999999999999 c-0.84 0 -1.6333 0.16 -2.38 0.48 s-1.4 0.75666 -1.96 1.31 s-1 1.2033 -1.32 1.95 s-0.48 1.54 -0.48 2.38 s0.16 1.6333 0.48 2.38 s0.76 1.4 1.32 1.96 s1.2133 1 1.96 1.32 s1.54 0.48 2.38 0.48 s1.6333 -0.16 2.38 -0.48 s1.3967 -0.76 1.95 -1.32 s0.99 -1.2133 1.31 -1.96 s0.48 -1.54 0.48 -2.38 s-0.16 -1.6333 -0.48 -2.38 s-0.75666 -1.3967 -1.31 -1.95 s-1.2033 -0.99 -1.95 -1.31 s-1.54 -0.48 -2.38 -0.48 z M365.57000000000005 5.84 l-4.54 8.12 l0 5.46 c0 0.24 -0.08666 0.44666 -0.26 0.62 s-0.38 0.26 -0.62 0.26 s-0.44666 -0.08666 -0.62 -0.26 s-0.26 -0.38 -0.26 -0.62 l0 -5.46 l-4.54 -8.12 c-0.08 -0.13334 -0.12 -0.28 -0.12 -0.44 c0 -0.24 0.08666 -0.44666 0.26 -0.62 s0.38 -0.26 0.62 -0.26 c0.16 0 0.31 0.04 0.45 0.12 s0.25 0.18666 0.33 0.32 l3.88 6.94 l3.88 -6.94 c0.08 -0.13334 0.19 -0.24 0.33 -0.32 s0.29 -0.12 0.45 -0.12 c0.24 0 0.44666 0.08666 0.62 0.26 s0.26 0.38 0.26 0.62 c0 0.16 -0.04 0.30666 -0.12 0.44 z"></path></g></svg>